<?xml version="1.0" encoding="utf-8"?>
<!-- Generator: Adobe Illustrator 16.0.0, SVG Export Plug-In . SVG Version: 6.00 Build 0)  -->
<!DOCTYPE svg PUBLIC "-//W3C//DTD SVG 1.1//EN" "http://www.w3.org/Graphics/SVG/1.1/DTD/svg11.dtd">
<svg version="1.1" id="Layer_1" xmlns="http://www.w3.org/2000/svg" xmlns:xlink="http://www.w3.org/1999/xlink" x="0px" y="0px"
	 width="103.816px" height="116.271px" viewBox="0 0 103.816 116.271" enable-background="new 0 0 103.816 116.271"
	 xml:space="preserve">
<g>
	<g>
		<path class="knob-hexagon" fill="#FFFFFF" d="M51.908,115.771c-3.16,0-9.082-1.406-13.234-10.825c-2.925-6.634-11.468-12.031-19.045-12.031
			c-0.558,0-1.11,0.029-1.643,0.087c-1.06,0.115-2.096,0.174-3.079,0.174c-8.504,0-11.917-4.224-13.194-6.742
			c-1.366-2.692-2.787-8.397,3.039-16.354c4.658-6.362,4.658-17.525,0-23.888c-5.825-7.957-4.404-13.662-3.038-16.354
			c1.277-2.518,4.69-6.742,13.193-6.742c0.983,0,2.019,0.059,3.079,0.174c0.533,0.058,1.085,0.087,1.643,0.087
			c7.577,0,16.12-5.397,19.045-12.031C42.826,1.906,48.748,0.5,51.908,0.5s9.082,1.406,13.234,10.825
			c2.925,6.634,11.468,12.031,19.045,12.031c0.558,0,1.11-0.029,1.643-0.087c1.061-0.115,2.096-0.174,3.079-0.174
			c8.504,0,11.917,4.224,13.194,6.742c1.366,2.692,2.787,8.397-3.039,16.354c-4.658,6.362-4.658,17.525,0,23.888
			c5.825,7.957,4.404,13.554,3.038,16.246c-1.277,2.518-4.689,6.636-13.193,6.636c0,0-0.001,0-0.002,0
			c-0.981,0-2.017,0.049-3.077-0.066c-0.533-0.058-1.085-0.034-1.643-0.034c-7.577,0-16.12,5.424-19.045,12.058
			C60.989,114.337,55.068,115.771,51.908,115.771z"/>
		<path class="knob-hexagon" fill="none" stroke="#000000" stroke-miterlimit="10" d="M51.908,115.771c-3.16,0-9.082-1.406-13.234-10.825
			c-2.925-6.634-11.468-12.031-19.045-12.031c-0.558,0-1.11,0.029-1.643,0.087c-1.06,0.115-2.096,0.174-3.079,0.174
			c-8.504,0-11.917-4.224-13.194-6.742c-1.366-2.692-2.787-8.397,3.039-16.354c4.658-6.362,4.658-17.525,0-23.888
			c-5.825-7.957-4.404-13.662-3.038-16.354c1.277-2.518,4.69-6.742,13.193-6.742c0.983,0,2.019,0.059,3.079,0.174
			c0.533,0.058,1.085,0.087,1.643,0.087c7.577,0,16.12-5.397,19.045-12.031C42.826,1.906,48.748,0.5,51.908,0.5
			s9.082,1.406,13.234,10.825c2.925,6.634,11.468,12.031,19.045,12.031c0.558,0,1.11-0.029,1.643-0.087
			c1.061-0.115,2.096-0.174,3.079-0.174c8.504,0,11.917,4.224,13.194,6.742c1.366,2.692,2.787,8.397-3.039,16.354
			c-4.658,6.362-4.658,17.525,0,23.888c5.825,7.957,4.404,13.804,3.038,16.496c-1.277,2.518-4.689,6.886-13.193,6.886
			c0,0-0.001,0-0.002,0c-0.981,0-2.017-0.201-3.077-0.316c-0.533-0.058-1.085-0.159-1.643-0.159c-7.577,0-16.12,5.362-19.045,11.996
			C60.989,114.4,55.068,115.771,51.908,115.771z"/>
	</g>
	<path class="knob-indicator" fill="#FFFFFF" stroke="#000000" stroke-miterlimit="10" d="M56.151,48.089c0,1.862-0.636,3.372-1.777,3.372h-4.446
		c-1.141,0-1.777-1.51-1.777-3.372V13.833c0-1.862,0.636-3.372,1.777-3.372h4.446c1.141,0,1.777,1.51,1.777,3.372V48.089z"/>
</g>
</svg>
